<svg xmlns="http://www.w3.org/2000/svg" width="1507" height="688" viewBox="-.1 -.1 13.7 6.25"><defs><clipPath id="base"><rect x="-.1" y="0.05" width="13.7" height="6.1499999999999995"/></clipPath></defs><g clip-path="url(#base)"><path d="M0,0L13.5,0L13.5,6.05L0,6.05Z" fill="#626973"/><path d="M0,5L13.5,5L13.5,6.05L0,6.05Z" fill="#63515e"/><g transform="scale(0.00909090909090909) translate(-11 -11)"><g transform="translate(11 11)"><path d="M0,0L1485,0L1485,550L0,550Z" fill="#806e78"/><path d="M0,0L319,0L319,346.5L0,346.5Z" fill="#806e78"/><path d="M319,0L605,0L605,346.5L319,346.5Z" fill="#806e78"/><path d="M0,346.5L231,346.5L231,550L0,550Z" fill="#806e78"/><path d="M605,0L935,0L935,374L605,374Z" fill="#806e78"/><path d="M1155,0L1485,0L1485,550L1155,550Z" fill="#a6aba6"/><path d="M935,0L1155,0L1155,374L935,374Z" fill="#806e78"/><rect x="0" y="0" width="55" height="143" fill="#e0dcd5"/><path d="M0,0L1485,0" stroke="#e0dcd5" stroke-width="11" fill="none"/><path d="M1485,0L1485,550" stroke="#e0dcd5" stroke-width="11" fill="none"/><path d="M1485,550L362.9999999999999,550" stroke="#e0dcd5" stroke-width="11" fill="none"/><path d="M362.9999999999999,550L230.99999999999997,550" stroke="#e8a95b" stroke-width="2.64" fill="none"/><path d="M230.99999999999997,550L0,550" stroke="#e0dcd5" stroke-width="11" fill="none"/><path d="M0,550L0,0" stroke="#e0dcd5" stroke-width="11" fill="none"/><path d="M605,0L605,396.00000000000006" stroke="#e0dcd5" stroke-width="11" fill="none"/><path d="M605,396.00000000000006L605,528.0000000000001" stroke="#e8a95b" stroke-width="2.64" fill="none"/><path d="M605,528.0000000000001L605,550" stroke="#e0dcd5" stroke-width="11" fill="none"/><path d="M935,0L935,120.99999999999999" stroke="#e0dcd5" stroke-width="11" fill="none"/><path d="M935,120.99999999999999L935,253.00000000000003" stroke="#e8a95b" stroke-width="2.64" fill="none"/><path d="M935,253.00000000000003L935,374" stroke="#e0dcd5" stroke-width="11" fill="none"/><path d="M935,374L1155,374" stroke="#e0dcd5" stroke-width="11" fill="none"/><path d="M1155,0L1155,396.00000000000006" stroke="#e0dcd5" stroke-width="11" fill="none"/><path d="M1155,396.00000000000006L1155,528.0000000000001" stroke="#e8a95b" stroke-width="2.64" fill="none"/><path d="M1155,528.0000000000001L1155,550" stroke="#e0dcd5" stroke-width="11" fill="none"/><path d="M605,374L737,374" stroke="#e0dcd5" stroke-width="11" fill="none"/><path d="M737,374L869,374" stroke="#e8a95b" stroke-width="2.64" fill="none"/><path d="M869,374L935,374" stroke="#e0dcd5" stroke-width="11" fill="none"/><path d="M99,0L264,0" stroke="#6fcee0" stroke-width="7.700000000000001" fill="none"/><path d="M357.5,0L539,0" stroke="#6fcee0" stroke-width="7.700000000000001" fill="none"/><path d="M654.5,0L880,0" stroke="#6fcee0" stroke-width="7.700000000000001" fill="none"/><rect x="132" y="165" width="99" height="99" rx="3" fill="#d5dadb" stroke="#1a2630" stroke-width="2"/><rect x="55" y="187" width="49.5" height="49.5" rx="3" fill="#87a7c2" stroke="#1a2630" stroke-width="2"/><path d="M57.74999999999999,190.85000000000002L57.74999999999999,232.65000000000003" stroke="#24333c" stroke-width="4.95" fill="none"/><rect x="258.5" y="187" width="49.5" height="49.5" rx="3" fill="#87a7c2" stroke="#1a2630" stroke-width="2"/><path d="M305.25000000000006,232.65000000000003L305.25000000000006,190.85000000000002" stroke="#24333c" stroke-width="4.95" fill="none"/><rect x="401.5" y="27.5" width="187" height="71.5" rx="3" fill="#87a7c2" stroke="#1a2630" stroke-width="2"/><rect x="456.50000000000006" y="187" width="93.5" height="55" rx="3" fill="#d5dadb" stroke="#1a2630" stroke-width="2"/><rect x="22" y="374" width="176" height="60.50000000000001" rx="3" fill="#d5dadb" stroke="#1a2630" stroke-width="2"/><rect x="82.5" y="456.50000000000006" width="55" height="55" rx="3" fill="#87a7c2" stroke="#1a2630" stroke-width="2"/><path d="M89.10000000000001,506.00000000000006L130.9,506.00000000000006" stroke="#24333c" stroke-width="4.95" fill="none"/><rect x="1100" y="27.5" width="44" height="275" rx="3" fill="#c5a269" stroke="#1a2630" stroke-width="2"/><path d="M1122,35.2L1122,294.8" stroke="#71502a" stroke-width="1.9799999999999998" fill="none"/><rect x="1177" y="22" width="99" height="99" rx="3" fill="#d5dadb" stroke="#1a2630" stroke-width="2"/><rect x="1292.5" y="22" width="170.5" height="88" rx="3" fill="#d5dadb" stroke="#1a2630" stroke-width="2"/><rect x="1177" y="165" width="60.50000000000001" height="77" rx="3" fill="#d5dadb" stroke="#1a2630" stroke-width="2"/><g transform="translate(1438.25 247.5) rotate(180)"><rect x="-35.75" y="-27.5" width="17.875" height="55" rx="3" fill="#e6ebe9" stroke="#35454d" stroke-width="2"/><ellipse cx="7.15" cy="0" rx="24.310000000000002" ry="22" fill="#f8faf8" stroke="#35454d" stroke-width="2"/><path d="M25.025 0h33l-7 -5m7 5l-7 5" fill="none" stroke="#873c23" stroke-width="2"/></g><rect x="632.5" y="27.5" width="132" height="154" rx="3" fill="#87a7c2" stroke="#1a2630" stroke-width="2"/><rect x="621.5" y="225.49999999999997" width="60.50000000000001" height="132" rx="3" fill="#c5a269" stroke="#1a2630" stroke-width="2"/><path d="M651.7500000000001,233.19999999999996L651.7500000000001,349.8" stroke="#71502a" stroke-width="1.9799999999999998" fill="none"/><rect x="5.5" y="22" width="40.7" height="99" rx="3" fill="#203645" stroke="#1a2630" stroke-width="2"/><g transform="translate(25.849999999999998 71.5) rotate(-90)"><rect x="-35" y="-13" width="70" height="26" rx="3" fill="none" stroke="#70dfdb" stroke-width="2"/></g></g></g><path d="M0,0L13.5,0" stroke="#e0dcd5" stroke-width="0.1" fill="none"/></g><rect x="0" y="5.05" width="13.5" height="0.1" fill="#96887b"/><rect x="0" y="5.15" width="13.5" height="0.15" fill="#bd969d"/><rect x="10.500005" y="4.95" width="2.999995" height="0.1" fill="#c8baa5"/><rect x="10.500005" y="5.025" width="2.999995" height="0.025" fill="#4c443e"/><rect x="10.530005" y="4.965" width="0.64" height="0.04" fill="#4c443e"/><rect x="10.542005" y="4.97" width="0.616" height="0.025" fill="#c8baa5"/><rect x="10.530005" y="5.01" width="0.64" height="0.012" fill="#674333"/><rect x="10.530005" y="4.953" width="0.025" height="0.092" fill="#4c443e"/><rect x="10.536005" y="4.966" width="0.013" height="0.036" fill="#ffe7b0"/><rect x="11.230004999999998" y="4.965" width="0.64" height="0.04" fill="#4c443e"/><rect x="11.242004999999999" y="4.97" width="0.616" height="0.025" fill="#c8baa5"/><rect x="11.230004999999998" y="5.01" width="0.64" height="0.012" fill="#674333"/><rect x="11.230004999999998" y="4.953" width="0.025" height="0.092" fill="#4c443e"/><rect x="11.236004999999999" y="4.966" width="0.013" height="0.036" fill="#ffe7b0"/><rect x="11.930004999999998" y="4.965" width="0.64" height="0.04" fill="#4c443e"/><rect x="11.942004999999998" y="4.97" width="0.616" height="0.025" fill="#c8baa5"/><rect x="11.930004999999998" y="5.01" width="0.64" height="0.012" fill="#674333"/><rect x="11.930004999999998" y="4.953" width="0.025" height="0.092" fill="#4c443e"/><rect x="11.936004999999998" y="4.966" width="0.013" height="0.036" fill="#ffe7b0"/><rect x="12.630004999999997" y="4.965" width="0.64" height="0.04" fill="#4c443e"/><rect x="12.642004999999997" y="4.97" width="0.616" height="0.025" fill="#c8baa5"/><rect x="12.630004999999997" y="5.01" width="0.64" height="0.012" fill="#674333"/><rect x="12.630004999999997" y="4.953" width="0.025" height="0.092" fill="#4c443e"/><rect x="12.636004999999997" y="4.966" width="0.013" height="0.036" fill="#ffe7b0"/><rect x="13.330004999999996" y="4.965" width="0.14499500000000368" height="0.04" fill="#4c443e"/><rect x="13.342004999999997" y="4.97" width="0.12099500000000368" height="0.025" fill="#c8baa5"/><rect x="13.330004999999996" y="5.01" width="0.14499500000000368" height="0.012" fill="#674333"/><rect x="13.330004999999996" y="4.953" width="0.025" height="0.092" fill="#4c443e"/><rect x="13.336004999999997" y="4.966" width="0.013" height="0.036" fill="#ffe7b0"/><rect x="5.500003" y="4.95" width="5.000001999999999" height="0.1" fill="#c8baa5"/><rect x="5.500003" y="5.025" width="5.000001999999999" height="0.025" fill="#4c443e"/><rect x="5.530003000000001" y="4.965" width="0.64" height="0.04" fill="#4c443e"/><rect x="5.542003" y="4.97" width="0.616" height="0.025" fill="#c8baa5"/><rect x="5.530003000000001" y="5.01" width="0.64" height="0.012" fill="#674333"/><rect x="5.530003000000001" y="4.953" width="0.025" height="0.092" fill="#4c443e"/><rect x="5.536003000000001" y="4.966" width="0.013" height="0.036" fill="#ffe7b0"/><rect x="6.230003000000001" y="4.965" width="0.64" height="0.04" fill="#4c443e"/><rect x="6.242003" y="4.97" width="0.616" height="0.025" fill="#c8baa5"/><rect x="6.230003000000001" y="5.01" width="0.64" height="0.012" fill="#674333"/><rect x="6.230003000000001" y="4.953" width="0.025" height="0.092" fill="#4c443e"/><rect x="6.236003000000001" y="4.966" width="0.013" height="0.036" fill="#ffe7b0"/><rect x="6.930003000000001" y="4.965" width="0.64" height="0.04" fill="#4c443e"/><rect x="6.942003000000001" y="4.97" width="0.616" height="0.025" fill="#c8baa5"/><rect x="6.930003000000001" y="5.01" width="0.64" height="0.012" fill="#674333"/><rect x="6.930003000000001" y="4.953" width="0.025" height="0.092" fill="#4c443e"/><rect x="6.936003000000001" y="4.966" width="0.013" height="0.036" fill="#ffe7b0"/><rect x="7.630003000000001" y="4.965" width="0.64" height="0.04" fill="#4c443e"/><rect x="7.642003000000001" y="4.97" width="0.616" height="0.025" fill="#c8baa5"/><rect x="7.630003000000001" y="5.01" width="0.64" height="0.012" fill="#674333"/><rect x="7.630003000000001" y="4.953" width="0.025" height="0.092" fill="#4c443e"/><rect x="7.636003000000001" y="4.966" width="0.013" height="0.036" fill="#ffe7b0"/><rect x="8.330003000000001" y="4.965" width="0.64" height="0.04" fill="#4c443e"/><rect x="8.342003000000002" y="4.97" width="0.616" height="0.025" fill="#c8baa5"/><rect x="8.330003000000001" y="5.01" width="0.64" height="0.012" fill="#674333"/><rect x="8.330003000000001" y="4.953" width="0.025" height="0.092" fill="#4c443e"/><rect x="8.336003000000002" y="4.966" width="0.013" height="0.036" fill="#ffe7b0"/><rect x="9.030003" y="4.965" width="0.64" height="0.04" fill="#4c443e"/><rect x="9.042003000000001" y="4.97" width="0.616" height="0.025" fill="#c8baa5"/><rect x="9.030003" y="5.01" width="0.64" height="0.012" fill="#674333"/><rect x="9.030003" y="4.953" width="0.025" height="0.092" fill="#4c443e"/><rect x="9.036003000000001" y="4.966" width="0.013" height="0.036" fill="#ffe7b0"/><rect x="9.730003" y="4.965" width="0.64" height="0.04" fill="#4c443e"/><rect x="9.742003" y="4.97" width="0.616" height="0.025" fill="#c8baa5"/><rect x="9.730003" y="5.01" width="0.64" height="0.012" fill="#674333"/><rect x="9.730003" y="4.953" width="0.025" height="0.092" fill="#4c443e"/><rect x="9.736003" y="4.966" width="0.013" height="0.036" fill="#ffe7b0"/><rect x="10.430003" y="4.965" width="0.04500200000000056" height="0.04" fill="#4c443e"/><rect x="10.442003" y="4.97" width="0.021002000000000562" height="0.025" fill="#c8baa5"/><rect x="10.430003" y="5.01" width="0.04500200000000056" height="0.012" fill="#674333"/><rect x="10.430003" y="4.953" width="0.025" height="0.092" fill="#4c443e"/><rect x="10.436003" y="4.966" width="0.013" height="0.036" fill="#ffe7b0"/><rect x="3.299994" y="4.95" width="2.2000090000000005" height="0.1" fill="#c8baa5"/><rect x="3.299994" y="5.025" width="2.2000090000000005" height="0.025" fill="#4c443e"/><rect x="3.3299939999999997" y="4.965" width="0.64" height="0.04" fill="#4c443e"/><rect x="3.3419939999999997" y="4.97" width="0.616" height="0.025" fill="#c8baa5"/><rect x="3.3299939999999997" y="5.01" width="0.64" height="0.012" fill="#674333"/><rect x="3.3299939999999997" y="4.953" width="0.025" height="0.092" fill="#4c443e"/><rect x="3.3359939999999995" y="4.966" width="0.013" height="0.036" fill="#ffe7b0"/><rect x="4.029993999999999" y="4.965" width="0.64" height="0.04" fill="#4c443e"/><rect x="4.041993999999999" y="4.97" width="0.616" height="0.025" fill="#c8baa5"/><rect x="4.029993999999999" y="5.01" width="0.64" height="0.012" fill="#674333"/><rect x="4.029993999999999" y="4.953" width="0.025" height="0.092" fill="#4c443e"/><rect x="4.035994" y="4.966" width="0.013" height="0.036" fill="#ffe7b0"/><rect x="4.729994" y="4.965" width="0.64" height="0.04" fill="#4c443e"/><rect x="4.741993999999999" y="4.97" width="0.616" height="0.025" fill="#c8baa5"/><rect x="4.729994" y="5.01" width="0.64" height="0.012" fill="#674333"/><rect x="4.729994" y="4.953" width="0.025" height="0.092" fill="#4c443e"/><rect x="4.735994" y="4.966" width="0.013" height="0.036" fill="#ffe7b0"/><rect x="5.429994" y="4.965" width="0.04500900000000065" height="0.04" fill="#4c443e"/><rect x="5.441993999999999" y="4.97" width="0.021009000000000652" height="0.025" fill="#c8baa5"/><rect x="5.429994" y="5.01" width="0.04500900000000065" height="0.012" fill="#674333"/><rect x="5.429994" y="4.953" width="0.025" height="0.092" fill="#4c443e"/><rect x="5.435994" y="4.966" width="0.013" height="0.036" fill="#ffe7b0"/><rect x="0" y="4.95" width="2.100006" height="0.1" fill="#c8baa5"/><rect x="0" y="5.025" width="2.100006" height="0.025" fill="#4c443e"/><rect x="0.03" y="4.965" width="0.64" height="0.04" fill="#4c443e"/><rect x="0.041999999999999996" y="4.97" width="0.616" height="0.025" fill="#c8baa5"/><rect x="0.03" y="5.01" width="0.64" height="0.012" fill="#674333"/><rect x="0.03" y="4.953" width="0.025" height="0.092" fill="#4c443e"/><rect x="0.036" y="4.966" width="0.013" height="0.036" fill="#ffe7b0"/><rect x="0.73" y="4.965" width="0.64" height="0.04" fill="#4c443e"/><rect x="0.742" y="4.97" width="0.616" height="0.025" fill="#c8baa5"/><rect x="0.73" y="5.01" width="0.64" height="0.012" fill="#674333"/><rect x="0.73" y="4.953" width="0.025" height="0.092" fill="#4c443e"/><rect x="0.736" y="4.966" width="0.013" height="0.036" fill="#ffe7b0"/><rect x="1.43" y="4.965" width="0.64" height="0.04" fill="#4c443e"/><rect x="1.442" y="4.97" width="0.616" height="0.025" fill="#c8baa5"/><rect x="1.43" y="5.01" width="0.64" height="0.012" fill="#674333"/><rect x="1.43" y="4.953" width="0.025" height="0.092" fill="#4c443e"/><rect x="1.436" y="4.966" width="0.013" height="0.036" fill="#ffe7b0"/><rect x="3.38" y="4.96" width="0.1" height="0.07" fill="#4c443e"/><rect x="3.39" y="4.971" width="0.04" height="0.018" fill="#ffb54f"/></svg>