<svg xmlns="http://www.w3.org/2000/svg" width="1536" height="1536" viewBox="0 0 1536 1536"><defs><clipPath id="footprint"><path d="M0,0L4.1,0L4.1,4.1L2,4.1L2,2.1L0,2.1Z"/></clipPath></defs><g transform="translate(358.00000000000006,358.00000000000006) scale(200)"><path d="M0,0L4.1,0L4.1,4.1L2,4.1L2,2.1L0,2.1Z" fill="#49474d"/><g clip-path="url(#footprint)"><path d="M0,0L4.1,0" fill="none" stroke="#e0dcd5" stroke-width="0.1"/><path d="M4.1,0L4.1,4.1" fill="none" stroke="#e0dcd5" stroke-width="0.1"/><path d="M4.1,4.1L4.05,4.1" fill="none" stroke="#e0dcd5" stroke-width="0.1"/><path d="M2.05,4.1L2,4.1" fill="none" stroke="#e0dcd5" stroke-width="0.1"/><path d="M2,4.1L2,2.1" fill="none" stroke="#e0dcd5" stroke-width="0.1"/><path d="M2,2.1L0,2.1" fill="none" stroke="#e0dcd5" stroke-width="0.1"/><path d="M0,2.1L0,2.05" fill="none" stroke="#e0dcd5" stroke-width="0.1"/><path d="M0,0.050000000000000266L0,0" fill="none" stroke="#e0dcd5" stroke-width="0.1"/></g></g></svg>