<svg xmlns="http://www.w3.org/2000/svg" width="1536" height="1536" viewBox="0 0 1536 1536"><defs><clipPath id="footprint"><path d="M0.9,0L2.1,0L2.7,0.6L2.7,1.8L2.1,2.4L0.9,2.4L0.3,1.8L0.3,0.6Z"/></clipPath></defs><g transform="translate(468,528) scale(200)"><path d="M0.9,0L2.1,0L2.7,0.6L2.7,1.8L2.1,2.4L0.9,2.4L0.3,1.8L0.3,0.6Z" fill="#79737f"/><g clip-path="url(#footprint)"><path d="M2.1,0L2.1,0" fill="none" stroke="#e0dcd5" stroke-width="0.1"/><path d="M2.1,0L2.7,0.6" fill="none" stroke="#e0dcd5" stroke-width="0.1"/><path d="M2.7,0.6L2.7,1.8000000000000003" fill="none" stroke="#e0dcd5" stroke-width="0.1"/><path d="M2.7,1.8L2.1,2.4" fill="none" stroke="#e0dcd5" stroke-width="0.1"/><path d="M2.1,2.4L0.8999999999999999,2.4" fill="none" stroke="#e0dcd5" stroke-width="0.1"/><path d="M0.9,2.4L0.29999999999999993,1.8" fill="none" stroke="#e0dcd5" stroke-width="0.1"/><path d="M0.3,1.8L0.3,0.5999999999999999" fill="none" stroke="#e0dcd5" stroke-width="0.1"/><path d="M0.3,0.6L0.9000000000000001,0" fill="none" stroke="#e0dcd5" stroke-width="0.1"/></g><rect x="2.3" y="0.85" width="0.2" height="0.55" rx=".035" fill="#d5d1c9" stroke="#323238" stroke-width=".025"/><text transform="translate(2.4 1.165) scale(.009)" font-family="Arial" font-size="14" text-anchor="middle" fill="#17191c">CONSOLE</text></g></svg>