<svg xmlns="http://www.w3.org/2000/svg" width="2400" height="3400"><rect width="100%" height="100%" fill="#16212b"/><g font-family="Arial"><text x="1200" y="42" text-anchor="middle" font-size="27" fill="#e7edf3">CABIN PLANS · RECTANGULAR OFFICER AND FAMILY SUITES</text><g transform="translate(60,110)"><text x="0" y="-22" fill="#e7edf3" font-size="19">Q01-B · Compact square — revised · 7.5 × 7.5 m</text><path d="M0,0L550,0L550,550L0,550Z" fill="#646c7a"/><path d="M330,0L550,0L550,242.00000000000003L330,242.00000000000003Z" fill="#a6aba6"/><rect x="495" y="242.00000000000003" width="55" height="148.5" fill="#e0dcd5"/><path d="M0,0L550,0" stroke="#e0dcd5" stroke-width="11" fill="none"/><path d="M550,0L550,550" stroke="#e0dcd5" stroke-width="11" fill="none"/><path d="M550,550L341,550" stroke="#e0dcd5" stroke-width="11" fill="none"/><path d="M341,550L209,550" stroke="#e8a95b" stroke-width="2.64" fill="none"/><path d="M209,550L0,550" stroke="#e0dcd5" stroke-width="11" fill="none"/><path d="M0,550L0,0" stroke="#e0dcd5" stroke-width="11" fill="none"/><path d="M330,0L330,55.000000000000014" stroke="#e0dcd5" stroke-width="11" fill="none"/><path d="M330,55.000000000000014L330,187.00000000000003" stroke="#e8a95b" stroke-width="2.64" fill="none"/><path d="M330,187.00000000000003L330,242.00000000000003" stroke="#e0dcd5" stroke-width="11" fill="none"/><path d="M330,242.00000000000003L550,242.00000000000003" stroke="#e0dcd5" stroke-width="11" fill="none"/><path d="M66,0L231,0" stroke="#6fcee0" stroke-width="7.700000000000001" fill="none"/><rect x="33" y="33" width="88" height="154" rx="3" fill="#87a7c2" stroke="#1a2630" stroke-width="2"/><text x="77" y="114.4" font-size="11" fill="#24333c" text-anchor="middle">BED</text><rect x="33" y="258.5" width="137.5" height="60.50000000000001" rx="3" fill="#d5dadb" stroke="#1a2630" stroke-width="2"/><text x="101.75" y="293.15" font-size="11" fill="#24333c" text-anchor="middle">DESK</text><rect x="77" y="335.5" width="49.5" height="49.5" rx="3" fill="#87a7c2" stroke="#1a2630" stroke-width="2"/><text x="101.74999999999999" y="364.65" font-size="11" fill="#24333c" text-anchor="middle">CHAIR</text><rect x="346.5" y="450.99999999999994" width="170.5" height="71.5" rx="3" fill="#87a7c2" stroke="#1a2630" stroke-width="2"/><text x="431.75" y="491.15" font-size="11" fill="#24333c" text-anchor="middle">SOFA</text><rect x="374" y="363" width="110" height="55" rx="3" fill="#d5dadb" stroke="#1a2630" stroke-width="2"/><text x="429" y="394.9" font-size="11" fill="#24333c" text-anchor="middle">TABLE</text><rect x="445.5" y="16.5" width="88" height="88" rx="3" fill="#d5dadb" stroke="#1a2630" stroke-width="2"/><text x="489.5" y="64.9" font-size="11" fill="#24333c" text-anchor="middle">SH</text><rect x="346.5" y="16.5" width="71.5" height="44" rx="3" fill="#d5dadb" stroke="#1a2630" stroke-width="2"/><text x="382.25" y="42.9" font-size="11" fill="#24333c" text-anchor="middle">BASIN</text><g transform="translate(503.25 187) rotate(180)"><rect x="-35.75" y="-27.5" width="17.875" height="55" rx="3" fill="#e6ebe9" stroke="#35454d" stroke-width="2"/><ellipse cx="7.15" cy="0" rx="24.310000000000002" ry="22" fill="#f8faf8" stroke="#35454d" stroke-width="2"/><path d="M25.025 0h33l-7 -5m7 5l-7 5" fill="none" stroke="#873c23" stroke-width="2"/></g><rect x="11" y="401.5" width="71.5" height="121.00000000000001" rx="3" fill="#c5a269" stroke="#1a2630" stroke-width="2"/><path d="M46.75000000000001,409.2L46.75000000000001,514.8" stroke="#71502a" stroke-width="1.9799999999999998" fill="none"/><text x="46.75000000000001" y="466.40000000000003" font-size="11" fill="#293846" text-anchor="middle">STOR</text><rect x="503.8" y="264" width="40.7" height="99" rx="3" fill="#203645" stroke="#1a2630" stroke-width="2"/><g transform="translate(524.15 313.5) rotate(-90)"><rect x="-35" y="-13" width="70" height="26" rx="3" fill="none" stroke="#70dfdb" stroke-width="2"/><text x="0" y="4" font-size="11" fill="#b9f5ee" text-anchor="middle">REPLICATOR</text></g></g><g transform="translate(750,110)"><text x="0" y="-22" fill="#e7edf3" font-size="19">Q02-R · Rectangular standard · 6 × 9 m</text><path d="M0,0L440,0L440,660L0,660Z" fill="#646c7a"/><path d="M220,0L440,0L440,264L220,264Z" fill="#a6aba6"/><rect x="385" y="264" width="55" height="121.00000000000001" fill="#e0dcd5"/><path d="M0,0L440,0" stroke="#e0dcd5" stroke-width="11" fill="none"/><path d="M440,0L440,660" stroke="#e0dcd5" stroke-width="11" fill="none"/><path d="M440,660L286,660" stroke="#e0dcd5" stroke-width="11" fill="none"/><path d="M286,660L154,660" stroke="#e8a95b" stroke-width="2.64" fill="none"/><path d="M154,660L0,660" stroke="#e0dcd5" stroke-width="11" fill="none"/><path d="M0,660L0,0" stroke="#e0dcd5" stroke-width="11" fill="none"/><path d="M220,0L220,77.00000000000001" stroke="#e0dcd5" stroke-width="11" fill="none"/><path d="M220,77.00000000000001L220,209.00000000000003" stroke="#e8a95b" stroke-width="2.64" fill="none"/><path d="M220,209.00000000000003L220,264" stroke="#e0dcd5" stroke-width="11" fill="none"/><path d="M220,264L440,264" stroke="#e0dcd5" stroke-width="11" fill="none"/><path d="M33,0L176,0" stroke="#6fcee0" stroke-width="7.700000000000001" fill="none"/><rect x="16.5" y="27.5" width="82.5" height="154" rx="3" fill="#87a7c2" stroke="#1a2630" stroke-width="2"/><text x="57.75" y="108.9" font-size="11" fill="#24333c" text-anchor="middle">BED</text><rect x="11" y="308" width="55" height="126.49999999999999" rx="3" fill="#d5dadb" stroke="#1a2630" stroke-width="2"/><text x="38.5" y="375.65" font-size="11" fill="#24333c" text-anchor="middle">DESK</text><rect x="82.5" y="352" width="49.5" height="49.5" rx="3" fill="#87a7c2" stroke="#1a2630" stroke-width="2"/><text x="107.25" y="381.15000000000003" font-size="11" fill="#24333c" text-anchor="middle">CHAIR</text><rect x="11" y="500.5" width="71.5" height="126.49999999999999" rx="3" fill="#c5a269" stroke="#1a2630" stroke-width="2"/><path d="M46.75000000000001,508.2L46.75000000000001,619.2999999999998" stroke="#71502a" stroke-width="1.9799999999999998" fill="none"/><text x="46.75000000000001" y="568.15" font-size="11" fill="#293846" text-anchor="middle">STOR</text><rect x="269.5" y="511.50000000000006" width="143" height="71.5" rx="3" fill="#87a7c2" stroke="#1a2630" stroke-width="2"/><text x="341" y="551.6500000000001" font-size="11" fill="#24333c" text-anchor="middle">SOFA</text><rect x="275" y="401.5" width="110" height="55" rx="3" fill="#d5dadb" stroke="#1a2630" stroke-width="2"/><text x="330" y="433.4" font-size="11" fill="#24333c" text-anchor="middle">TABLE</text><rect x="236.5" y="16.5" width="71.5" height="44" rx="3" fill="#d5dadb" stroke="#1a2630" stroke-width="2"/><text x="272.25" y="42.9" font-size="11" fill="#24333c" text-anchor="middle">BASIN</text><rect x="335.5" y="16.5" width="88" height="88" rx="3" fill="#d5dadb" stroke="#1a2630" stroke-width="2"/><text x="379.49999999999994" y="64.9" font-size="11" fill="#24333c" text-anchor="middle">SH</text><g transform="translate(393.25 203.5) rotate(180)"><rect x="-35.75" y="-27.5" width="17.875" height="55" rx="3" fill="#e6ebe9" stroke="#35454d" stroke-width="2"/><ellipse cx="7.15" cy="0" rx="24.310000000000002" ry="22" fill="#f8faf8" stroke="#35454d" stroke-width="2"/><path d="M25.025 0h33l-7 -5m7 5l-7 5" fill="none" stroke="#873c23" stroke-width="2"/></g><rect x="393.8" y="280.5" width="40.7" height="88" rx="3" fill="#203645" stroke="#1a2630" stroke-width="2"/><g transform="translate(414.15000000000003 324.49999999999994) rotate(-90)"><rect x="-35" y="-13" width="70" height="26" rx="3" fill="none" stroke="#70dfdb" stroke-width="2"/><text x="0" y="4" font-size="11" fill="#b9f5ee" text-anchor="middle">REPLICATOR</text></g></g><g transform="translate(60,880)"><text x="0" y="-22" fill="#e7edf3" font-size="19">Q04-P · Paired junior-officer cabins · 18 × 6 m</text><path d="M0,0L1320,0L1320,440L0,440Z" fill="#646c7a"/><path d="M550,0L770,0L770,440L550,440Z" fill="#a6aba6"/><rect x="495" y="0" width="55" height="154" fill="#e0dcd5"/><rect x="770" y="0" width="55" height="154" fill="#e0dcd5"/><path d="M0,0L1320,0" stroke="#e0dcd5" stroke-width="11" fill="none"/><path d="M1320,0L1320,440" stroke="#e0dcd5" stroke-width="11" fill="none"/><path d="M1320,440L1166,440" stroke="#e0dcd5" stroke-width="11" fill="none"/><path d="M1166,440L1034,440" stroke="#e8a95b" stroke-width="2.64" fill="none"/><path d="M1034,440L285.99999999999994,440" stroke="#e0dcd5" stroke-width="11" fill="none"/><path d="M285.99999999999994,440L153.99999999999983,440" stroke="#e8a95b" stroke-width="2.64" fill="none"/><path d="M153.99999999999983,440L0,440" stroke="#e0dcd5" stroke-width="11" fill="none"/><path d="M0,440L0,0" stroke="#e0dcd5" stroke-width="11" fill="none"/><path d="M550,0L550,176" stroke="#e0dcd5" stroke-width="11" fill="none"/><path d="M550,176L550,308.00000000000006" stroke="#e8a95b" stroke-width="2.64" fill="none"/><path d="M550,308.00000000000006L550,440" stroke="#e0dcd5" stroke-width="11" fill="none"/><path d="M770,0L770,176" stroke="#e0dcd5" stroke-width="11" fill="none"/><path d="M770,176L770,308.00000000000006" stroke="#e8a95b" stroke-width="2.64" fill="none"/><path d="M770,308.00000000000006L770,440" stroke="#e0dcd5" stroke-width="11" fill="none"/><path d="M143,0L308,0" stroke="#6fcee0" stroke-width="7.700000000000001" fill="none"/><path d="M1011.9999999999999,0L1177,0" stroke="#6fcee0" stroke-width="7.700000000000001" fill="none"/><rect x="27.5" y="27.5" width="93.5" height="154" rx="3" fill="#87a7c2" stroke="#1a2630" stroke-width="2"/><text x="74.25" y="108.9" font-size="11" fill="#24333c" text-anchor="middle">BED</text><rect x="11" y="247.5" width="66" height="159.5" rx="3" fill="#c5a269" stroke="#1a2630" stroke-width="2"/><path d="M44,255.2L44,399.3" stroke="#71502a" stroke-width="1.9799999999999998" fill="none"/><text x="44" y="331.65000000000003" font-size="11" fill="#293846" text-anchor="middle">STOR</text><rect x="242.00000000000003" y="33" width="143" height="55" rx="3" fill="#d5dadb" stroke="#1a2630" stroke-width="2"/><text x="313.5" y="64.9" font-size="11" fill="#24333c" text-anchor="middle">DESK</text><rect x="286" y="104.5" width="55" height="55" rx="3" fill="#87a7c2" stroke="#1a2630" stroke-width="2"/><text x="313.5" y="136.4" font-size="11" fill="#24333c" text-anchor="middle">CHAIR</text><rect x="368.5" y="341" width="66" height="66" rx="3" fill="#87a7c2" stroke="#1a2630" stroke-width="2"/><text x="401.5" y="378.4" font-size="11" fill="#24333c" text-anchor="middle">SEAT</text><rect x="1199" y="27.5" width="93.5" height="154" rx="3" fill="#87a7c2" stroke="#1a2630" stroke-width="2"/><text x="1245.7500000000002" y="108.9" font-size="11" fill="#24333c" text-anchor="middle">BED</text><rect x="1243" y="247.5" width="66" height="159.5" rx="3" fill="#c5a269" stroke="#1a2630" stroke-width="2"/><path d="M1276.0000000000002,255.2L1276.0000000000002,399.3" stroke="#71502a" stroke-width="1.9799999999999998" fill="none"/><text x="1276.0000000000002" y="331.65000000000003" font-size="11" fill="#293846" text-anchor="middle">STOR</text><rect x="935" y="33" width="143" height="55" rx="3" fill="#d5dadb" stroke="#1a2630" stroke-width="2"/><text x="1006.5" y="64.9" font-size="11" fill="#24333c" text-anchor="middle">DESK</text><rect x="979" y="104.5" width="55" height="55" rx="3" fill="#87a7c2" stroke="#1a2630" stroke-width="2"/><text x="1006.5" y="136.4" font-size="11" fill="#24333c" text-anchor="middle">CHAIR</text><rect x="869" y="341" width="66" height="66" rx="3" fill="#87a7c2" stroke="#1a2630" stroke-width="2"/><text x="902.0000000000001" y="378.4" font-size="11" fill="#24333c" text-anchor="middle">SEAT</text><rect x="561" y="16.5" width="88" height="88" rx="3" fill="#d5dadb" stroke="#1a2630" stroke-width="2"/><text x="605" y="64.9" font-size="11" fill="#24333c" text-anchor="middle">SH</text><g transform="translate(695.75 52.25) rotate(90)"><rect x="-35.75" y="-30.250000000000004" width="17.875" height="60.50000000000001" rx="3" fill="#e6ebe9" stroke="#35454d" stroke-width="2"/><ellipse cx="7.15" cy="0" rx="24.310000000000002" ry="24.200000000000003" fill="#f8faf8" stroke="#35454d" stroke-width="2"/><path d="M25.025 0h33l-7 -5m7 5l-7 5" fill="none" stroke="#873c23" stroke-width="2"/></g><rect x="599.5" y="374" width="121.00000000000001" height="44" rx="3" fill="#d5dadb" stroke="#1a2630" stroke-width="2"/><text x="660" y="400.40000000000003" font-size="11" fill="#24333c" text-anchor="middle">BASIN</text><rect x="503.8" y="33" width="40.7" height="99" rx="3" fill="#203645" stroke="#1a2630" stroke-width="2"/><g transform="translate(524.15 82.5) rotate(-90)"><rect x="-35" y="-13" width="70" height="26" rx="3" fill="none" stroke="#70dfdb" stroke-width="2"/><text x="0" y="4" font-size="11" fill="#b9f5ee" text-anchor="middle">REPLICATOR</text></g><rect x="775.5" y="33" width="40.7" height="99" rx="3" fill="#203645" stroke="#1a2630" stroke-width="2"/><g transform="translate(795.8499999999999 82.5) rotate(-90)"><rect x="-35" y="-13" width="70" height="26" rx="3" fill="none" stroke="#70dfdb" stroke-width="2"/><text x="0" y="4" font-size="11" fill="#b9f5ee" text-anchor="middle">REPLICATOR</text></g><text x="660" y="242.00000000000003" font-size="12" fill="#26343e" text-anchor="middle">SHARED</text><text x="660" y="264" font-size="12" fill="#26343e" text-anchor="middle">BATH</text></g><g transform="translate(60,1450)"><text x="0" y="-22" fill="#e7edf3" font-size="19">Q03-R · Officer suite — rectangular · 20.25 × 7.5 m</text><path d="M0,0L1485,0L1485,550L0,550Z" fill="#646c7a"/><path d="M0,0L319,0L319,346.5L0,346.5Z" fill="#777060"/><path d="M319,0L605,0L605,346.5L319,346.5Z" fill="#686d80"/><path d="M0,346.5L231,346.5L231,550L0,550Z" fill="#657784"/><path d="M605,0L935,0L935,374L605,374Z" fill="#697889"/><path d="M1155,0L1485,0L1485,550L1155,550Z" fill="#a6aba6"/><path d="M935,0L1155,0L1155,374L935,374Z" fill="#746652"/><rect x="0" y="0" width="55" height="143" fill="#e0dcd5"/><path d="M0,0L1485,0" stroke="#e0dcd5" stroke-width="11" fill="none"/><path d="M1485,0L1485,550" stroke="#e0dcd5" stroke-width="11" fill="none"/><path d="M1485,550L362.9999999999999,550" stroke="#e0dcd5" stroke-width="11" fill="none"/><path d="M362.9999999999999,550L230.99999999999997,550" stroke="#e8a95b" stroke-width="2.64" fill="none"/><path d="M230.99999999999997,550L0,550" stroke="#e0dcd5" stroke-width="11" fill="none"/><path d="M0,550L0,0" stroke="#e0dcd5" stroke-width="11" fill="none"/><path d="M605,0L605,396.00000000000006" stroke="#e0dcd5" stroke-width="11" fill="none"/><path d="M605,396.00000000000006L605,528.0000000000001" stroke="#e8a95b" stroke-width="2.64" fill="none"/><path d="M605,528.0000000000001L605,550" stroke="#e0dcd5" stroke-width="11" fill="none"/><path d="M935,0L935,120.99999999999999" stroke="#e0dcd5" stroke-width="11" fill="none"/><path d="M935,120.99999999999999L935,253.00000000000003" stroke="#e8a95b" stroke-width="2.64" fill="none"/><path d="M935,253.00000000000003L935,374" stroke="#e0dcd5" stroke-width="11" fill="none"/><path d="M935,374L1155,374" stroke="#e0dcd5" stroke-width="11" fill="none"/><path d="M1155,0L1155,396.00000000000006" stroke="#e0dcd5" stroke-width="11" fill="none"/><path d="M1155,396.00000000000006L1155,528.0000000000001" stroke="#e8a95b" stroke-width="2.64" fill="none"/><path d="M1155,528.0000000000001L1155,550" stroke="#e0dcd5" stroke-width="11" fill="none"/><path d="M605,374L737,374" stroke="#e0dcd5" stroke-width="11" fill="none"/><path d="M737,374L869,374" stroke="#e8a95b" stroke-width="2.64" fill="none"/><path d="M869,374L935,374" stroke="#e0dcd5" stroke-width="11" fill="none"/><path d="M99,0L264,0" stroke="#6fcee0" stroke-width="7.700000000000001" fill="none"/><path d="M357.5,0L539,0" stroke="#6fcee0" stroke-width="7.700000000000001" fill="none"/><path d="M654.5,0L880,0" stroke="#6fcee0" stroke-width="7.700000000000001" fill="none"/><rect x="132" y="165" width="99" height="99" rx="3" fill="#d5dadb" stroke="#1a2630" stroke-width="2"/><text x="181.5" y="218.9" font-size="11" fill="#24333c" text-anchor="middle">DINING TABLE</text><rect x="55" y="187" width="49.5" height="49.5" rx="3" fill="#87a7c2" stroke="#1a2630" stroke-width="2"/><text x="79.75" y="216.15" font-size="11" fill="#24333c" text-anchor="middle">CHAIR</text><path d="M57.74999999999999,190.85000000000002L57.74999999999999,232.65000000000003" stroke="#24333c" stroke-width="4.95" fill="none"/><rect x="258.5" y="187" width="49.5" height="49.5" rx="3" fill="#87a7c2" stroke="#1a2630" stroke-width="2"/><text x="283.25" y="216.15" font-size="11" fill="#24333c" text-anchor="middle">CHAIR</text><path d="M305.25000000000006,232.65000000000003L305.25000000000006,190.85000000000002" stroke="#24333c" stroke-width="4.95" fill="none"/><rect x="401.5" y="27.5" width="187" height="71.5" rx="3" fill="#87a7c2" stroke="#1a2630" stroke-width="2"/><text x="495" y="67.65" font-size="11" fill="#24333c" text-anchor="middle">SOFA</text><rect x="456.50000000000006" y="187" width="93.5" height="55" rx="3" fill="#d5dadb" stroke="#1a2630" stroke-width="2"/><text x="503.25" y="218.9" font-size="11" fill="#24333c" text-anchor="middle">TABLE</text><rect x="22" y="374" width="176" height="60.50000000000001" rx="3" fill="#d5dadb" stroke="#1a2630" stroke-width="2"/><text x="110" y="408.65" font-size="11" fill="#24333c" text-anchor="middle">DESK</text><rect x="82.5" y="456.50000000000006" width="55" height="55" rx="3" fill="#87a7c2" stroke="#1a2630" stroke-width="2"/><text x="110" y="488.40000000000003" font-size="11" fill="#24333c" text-anchor="middle">CHAIR</text><path d="M89.10000000000001,506.00000000000006L130.9,506.00000000000006" stroke="#24333c" stroke-width="4.95" fill="none"/><rect x="1100" y="27.5" width="44" height="275" rx="3" fill="#c5a269" stroke="#1a2630" stroke-width="2"/><path d="M1122,35.2L1122,294.8" stroke="#71502a" stroke-width="1.9799999999999998" fill="none"/><text x="1122" y="169.4" font-size="11" fill="#293846" text-anchor="middle">STOR</text><rect x="1177" y="22" width="99" height="99" rx="3" fill="#d5dadb" stroke="#1a2630" stroke-width="2"/><text x="1226.4999999999998" y="75.9" font-size="11" fill="#24333c" text-anchor="middle">SH</text><rect x="1292.5" y="22" width="170.5" height="88" rx="3" fill="#d5dadb" stroke="#1a2630" stroke-width="2"/><text x="1377.75" y="70.40000000000002" font-size="11" fill="#24333c" text-anchor="middle">TUB</text><rect x="1177" y="165" width="60.50000000000001" height="77" rx="3" fill="#d5dadb" stroke="#1a2630" stroke-width="2"/><text x="1207.25" y="207.9" font-size="11" fill="#24333c" text-anchor="middle">BASIN</text><g transform="translate(1438.25 247.5) rotate(180)"><rect x="-35.75" y="-27.5" width="17.875" height="55" rx="3" fill="#e6ebe9" stroke="#35454d" stroke-width="2"/><ellipse cx="7.15" cy="0" rx="24.310000000000002" ry="22" fill="#f8faf8" stroke="#35454d" stroke-width="2"/><path d="M25.025 0h33l-7 -5m7 5l-7 5" fill="none" stroke="#873c23" stroke-width="2"/></g><rect x="632.5" y="27.5" width="132" height="154" rx="3" fill="#87a7c2" stroke="#1a2630" stroke-width="2"/><text x="698.5" y="108.9" font-size="11" fill="#24333c" text-anchor="middle">BED</text><rect x="621.5" y="225.49999999999997" width="60.50000000000001" height="132" rx="3" fill="#c5a269" stroke="#1a2630" stroke-width="2"/><path d="M651.7500000000001,233.19999999999996L651.7500000000001,349.8" stroke="#71502a" stroke-width="1.9799999999999998" fill="none"/><text x="651.7500000000001" y="295.9" font-size="11" fill="#293846" text-anchor="middle">STOR</text><rect x="5.5" y="22" width="40.7" height="99" rx="3" fill="#203645" stroke="#1a2630" stroke-width="2"/><g transform="translate(25.849999999999998 71.5) rotate(-90)"><rect x="-35" y="-13" width="70" height="26" rx="3" fill="none" stroke="#70dfdb" stroke-width="2"/><text x="0" y="4" font-size="11" fill="#b9f5ee" text-anchor="middle">REPLICATOR</text></g><text x="1045" y="324.5" font-size="12" fill="#e7edf3" text-anchor="middle">PRIVATE CLOSET</text><text x="165" y="324.5" font-size="13" fill="#e7edf3" text-anchor="middle">DINING</text><text x="450.99999999999994" y="324.5" font-size="13" fill="#e7edf3" text-anchor="middle">LIVING</text><text x="110" y="357.5" font-size="13" fill="#e7edf3" text-anchor="middle">WORK</text><text x="803" y="247.5" font-size="11" fill="#e7edf3" text-anchor="middle">MASTER BEDROOM</text><text x="1320" y="363" font-size="13" fill="#24333c" text-anchor="middle">HEAD</text><text x="880" y="522.5" font-size="12" fill="#e7edf3" text-anchor="middle">PRIVATE PASSAGE</text></g><g transform="translate(60,2110)"><text x="0" y="-22" fill="#e7edf3" font-size="19">Q05-F2 · Family suite — two bedrooms · 26.25 × 7.5 m</text><path d="M0,0L1925,0L1925,550L0,550Z" fill="#646c7a"/><path d="M0,0L429,0L429,385L0,385Z" fill="#777060"/><path d="M429,0L715,0L715,346.5L429,346.5Z" fill="#686d80"/><path d="M0,346.5L231,346.5L231,550L0,550Z" fill="#657784"/><path d="M715,0L1045,0L1045,374L715,374Z" fill="#697889"/><path d="M1045,0L1375,0L1375,374L1045,374Z" fill="#697889"/><path d="M1595,0L1925,0L1925,550L1595,550Z" fill="#a6aba6"/><path d="M1375,0L1595,0L1595,374L1375,374Z" fill="#746652"/><rect x="0" y="0" width="55" height="143" fill="#e0dcd5"/><path d="M0,0L1925,0" stroke="#e0dcd5" stroke-width="11" fill="none"/><path d="M1925,0L1925,550" stroke="#e0dcd5" stroke-width="11" fill="none"/><path d="M1925,550L362.9999999999999,550" stroke="#e0dcd5" stroke-width="11" fill="none"/><path d="M362.9999999999999,550L230.99999999999997,550" stroke="#e8a95b" stroke-width="2.64" fill="none"/><path d="M230.99999999999997,550L0,550" stroke="#e0dcd5" stroke-width="11" fill="none"/><path d="M0,550L0,0" stroke="#e0dcd5" stroke-width="11" fill="none"/><path d="M715,0L715,396.00000000000006" stroke="#e0dcd5" stroke-width="11" fill="none"/><path d="M715,396.00000000000006L715,528.0000000000001" stroke="#e8a95b" stroke-width="2.64" fill="none"/><path d="M715,528.0000000000001L715,550" stroke="#e0dcd5" stroke-width="11" fill="none"/><path d="M1375,0L1375,120.99999999999999" stroke="#e0dcd5" stroke-width="11" fill="none"/><path d="M1375,120.99999999999999L1375,253.00000000000003" stroke="#e8a95b" stroke-width="2.64" fill="none"/><path d="M1375,253.00000000000003L1375,374" stroke="#e0dcd5" stroke-width="11" fill="none"/><path d="M1375,374L1595,374" stroke="#e0dcd5" stroke-width="11" fill="none"/><path d="M1595,0L1595,396.00000000000006" stroke="#e0dcd5" stroke-width="11" fill="none"/><path d="M1595,396.00000000000006L1595,528.0000000000001" stroke="#e8a95b" stroke-width="2.64" fill="none"/><path d="M1595,528.0000000000001L1595,550" stroke="#e0dcd5" stroke-width="11" fill="none"/><path d="M715,374L847.0000000000001,374" stroke="#e0dcd5" stroke-width="11" fill="none"/><path d="M847.0000000000001,374L979,374" stroke="#e8a95b" stroke-width="2.64" fill="none"/><path d="M979,374L1045,374" stroke="#e0dcd5" stroke-width="11" fill="none"/><path d="M1045,0L1045,374" stroke="#e0dcd5" stroke-width="11" fill="none"/><path d="M1045,374L1177.0000000000002,374" stroke="#e0dcd5" stroke-width="11" fill="none"/><path d="M1177.0000000000002,374L1309,374" stroke="#e8a95b" stroke-width="2.64" fill="none"/><path d="M1309,374L1375,374" stroke="#e0dcd5" stroke-width="11" fill="none"/><path d="M99,0L264,0" stroke="#6fcee0" stroke-width="7.700000000000001" fill="none"/><path d="M467.5,0L649,0" stroke="#6fcee0" stroke-width="7.700000000000001" fill="none"/><path d="M764.5,0L990,0" stroke="#6fcee0" stroke-width="7.700000000000001" fill="none"/><path d="M1094.5,0L1320,0" stroke="#6fcee0" stroke-width="7.700000000000001" fill="none"/><rect x="511.50000000000006" y="27.5" width="187" height="71.5" rx="3" fill="#87a7c2" stroke="#1a2630" stroke-width="2"/><text x="605" y="67.65" font-size="11" fill="#24333c" text-anchor="middle">SOFA</text><rect x="566.5" y="187" width="93.5" height="55" rx="3" fill="#d5dadb" stroke="#1a2630" stroke-width="2"/><text x="613.25" y="218.9" font-size="11" fill="#24333c" text-anchor="middle">TABLE</text><rect x="22" y="396" width="176" height="60.50000000000001" rx="3" fill="#d5dadb" stroke="#1a2630" stroke-width="2"/><text x="110" y="430.65" font-size="11" fill="#24333c" text-anchor="middle">DESK</text><rect x="82.5" y="478.49999999999994" width="55" height="55" rx="3" fill="#87a7c2" stroke="#1a2630" stroke-width="2"/><text x="110" y="510.4" font-size="11" fill="#24333c" text-anchor="middle">CHAIR</text><path d="M89.10000000000001,528L130.9,528" stroke="#24333c" stroke-width="4.95" fill="none"/><rect x="1540" y="27.5" width="44" height="275" rx="3" fill="#c5a269" stroke="#1a2630" stroke-width="2"/><path d="M1562,35.2L1562,294.8" stroke="#71502a" stroke-width="1.9799999999999998" fill="none"/><text x="1562" y="169.4" font-size="11" fill="#293846" text-anchor="middle">STOR</text><rect x="1617" y="22" width="99" height="99" rx="3" fill="#d5dadb" stroke="#1a2630" stroke-width="2"/><text x="1666.4999999999998" y="75.9" font-size="11" fill="#24333c" text-anchor="middle">SH</text><rect x="1732.5" y="22" width="170.5" height="88" rx="3" fill="#d5dadb" stroke="#1a2630" stroke-width="2"/><text x="1817.7499999999998" y="70.40000000000002" font-size="11" fill="#24333c" text-anchor="middle">TUB</text><rect x="1617" y="165" width="60.50000000000001" height="77" rx="3" fill="#d5dadb" stroke="#1a2630" stroke-width="2"/><text x="1647.25" y="207.9" font-size="11" fill="#24333c" text-anchor="middle">BASIN</text><g transform="translate(1878.25 247.5) rotate(180)"><rect x="-35.75" y="-27.5" width="17.875" height="55" rx="3" fill="#e6ebe9" stroke="#35454d" stroke-width="2"/><ellipse cx="7.15" cy="0" rx="24.310000000000002" ry="22" fill="#f8faf8" stroke="#35454d" stroke-width="2"/><path d="M25.025 0h33l-7 -5m7 5l-7 5" fill="none" stroke="#873c23" stroke-width="2"/></g><rect x="742.5" y="27.5" width="121.00000000000001" height="154" rx="3" fill="#87a7c2" stroke="#1a2630" stroke-width="2"/><text x="803" y="108.9" font-size="11" fill="#24333c" text-anchor="middle">BED</text><rect x="731.5" y="225.49999999999997" width="60.50000000000001" height="132" rx="3" fill="#c5a269" stroke="#1a2630" stroke-width="2"/><path d="M761.7500000000001,233.19999999999996L761.7500000000001,349.8" stroke="#71502a" stroke-width="1.9799999999999998" fill="none"/><text x="761.7500000000001" y="295.9" font-size="11" fill="#293846" text-anchor="middle">STOR</text><rect x="1072.5" y="27.5" width="132" height="154" rx="3" fill="#87a7c2" stroke="#1a2630" stroke-width="2"/><text x="1138.5" y="108.9" font-size="11" fill="#24333c" text-anchor="middle">BED</text><rect x="1061.5" y="225.49999999999997" width="60.50000000000001" height="132" rx="3" fill="#c5a269" stroke="#1a2630" stroke-width="2"/><path d="M1091.75,233.19999999999996L1091.75,349.8" stroke="#71502a" stroke-width="1.9799999999999998" fill="none"/><text x="1091.75" y="295.9" font-size="11" fill="#293846" text-anchor="middle">STOR</text><rect x="154" y="209" width="220" height="88" rx="3" fill="#d5dadb" stroke="#1a2630" stroke-width="2"/><text x="264" y="257.4" font-size="11" fill="#24333c" text-anchor="middle">DINING TABLE</text><rect x="154" y="126.49999999999999" width="220" height="49.5" rx="3" fill="#d5dadb" stroke="#1a2630" stroke-width="2"/><text x="264" y="155.65" font-size="11" fill="#24333c" text-anchor="middle">DINING BENCH</text><rect x="154" y="324.5" width="220" height="49.5" rx="3" fill="#d5dadb" stroke="#1a2630" stroke-width="2"/><text x="264" y="353.65000000000003" font-size="11" fill="#24333c" text-anchor="middle">DINING BENCH</text><rect x="5.5" y="22" width="40.7" height="99" rx="3" fill="#203645" stroke="#1a2630" stroke-width="2"/><g transform="translate(25.849999999999998 71.5) rotate(-90)"><rect x="-35" y="-13" width="70" height="26" rx="3" fill="none" stroke="#70dfdb" stroke-width="2"/><text x="0" y="4" font-size="11" fill="#b9f5ee" text-anchor="middle">REPLICATOR</text></g><text x="1485" y="324.5" font-size="12" fill="#e7edf3" text-anchor="middle">PRIVATE CLOSET</text><text x="264" y="71.5" font-size="13" fill="#e7edf3" text-anchor="middle">FAMILY DINING</text><text x="561" y="324.5" font-size="13" fill="#e7edf3" text-anchor="middle">LIVING</text><text x="110" y="357.5" font-size="13" fill="#e7edf3" text-anchor="middle">WORK</text><text x="913.0000000000001" y="247.5" font-size="11" fill="#e7edf3" text-anchor="middle">BEDROOM 1</text><text x="1243" y="247.5" font-size="11" fill="#e7edf3" text-anchor="middle">MASTER BEDROOM</text><text x="1760" y="363" font-size="13" fill="#24333c" text-anchor="middle">HEAD</text><text x="1155" y="522.5" font-size="12" fill="#e7edf3" text-anchor="middle">PRIVATE PASSAGE</text></g><g transform="translate(60,2770)"><text x="0" y="-22" fill="#e7edf3" font-size="19">Q05-F3 · Family suite — three bedrooms · 30.75 × 7.5 m</text><path d="M0,0L2255,0L2255,550L0,550Z" fill="#646c7a"/><path d="M0,0L429,0L429,385L0,385Z" fill="#777060"/><path d="M429,0L715,0L715,346.5L429,346.5Z" fill="#686d80"/><path d="M0,346.5L231,346.5L231,550L0,550Z" fill="#657784"/><path d="M715,0L1045,0L1045,374L715,374Z" fill="#697889"/><path d="M1045,0L1375,0L1375,374L1045,374Z" fill="#697889"/><path d="M1375,0L1705,0L1705,374L1375,374Z" fill="#697889"/><path d="M1925,0L2255,0L2255,550L1925,550Z" fill="#a6aba6"/><path d="M1705,0L1925,0L1925,374L1705,374Z" fill="#746652"/><rect x="0" y="0" width="55" height="143" fill="#e0dcd5"/><path d="M0,0L2255,0" stroke="#e0dcd5" stroke-width="11" fill="none"/><path d="M2255,0L2255,550" stroke="#e0dcd5" stroke-width="11" fill="none"/><path d="M2255,550L363.00000000000006,550" stroke="#e0dcd5" stroke-width="11" fill="none"/><path d="M363.00000000000006,550L230.99999999999977,550" stroke="#e8a95b" stroke-width="2.64" fill="none"/><path d="M230.99999999999977,550L0,550" stroke="#e0dcd5" stroke-width="11" fill="none"/><path d="M0,550L0,0" stroke="#e0dcd5" stroke-width="11" fill="none"/><path d="M715,0L715,396.00000000000006" stroke="#e0dcd5" stroke-width="11" fill="none"/><path d="M715,396.00000000000006L715,528.0000000000001" stroke="#e8a95b" stroke-width="2.64" fill="none"/><path d="M715,528.0000000000001L715,550" stroke="#e0dcd5" stroke-width="11" fill="none"/><path d="M1705,0L1705,120.99999999999999" stroke="#e0dcd5" stroke-width="11" fill="none"/><path d="M1705,120.99999999999999L1705,253.00000000000003" stroke="#e8a95b" stroke-width="2.64" fill="none"/><path d="M1705,253.00000000000003L1705,374" stroke="#e0dcd5" stroke-width="11" fill="none"/><path d="M1705,374L1925,374" stroke="#e0dcd5" stroke-width="11" fill="none"/><path d="M1925,0L1925,396.00000000000006" stroke="#e0dcd5" stroke-width="11" fill="none"/><path d="M1925,396.00000000000006L1925,528.0000000000001" stroke="#e8a95b" stroke-width="2.64" fill="none"/><path d="M1925,528.0000000000001L1925,550" stroke="#e0dcd5" stroke-width="11" fill="none"/><path d="M715,374L847.0000000000001,374" stroke="#e0dcd5" stroke-width="11" fill="none"/><path d="M847.0000000000001,374L979,374" stroke="#e8a95b" stroke-width="2.64" fill="none"/><path d="M979,374L1045,374" stroke="#e0dcd5" stroke-width="11" fill="none"/><path d="M1045,0L1045,374" stroke="#e0dcd5" stroke-width="11" fill="none"/><path d="M1045,374L1177.0000000000002,374" stroke="#e0dcd5" stroke-width="11" fill="none"/><path d="M1177.0000000000002,374L1309,374" stroke="#e8a95b" stroke-width="2.64" fill="none"/><path d="M1309,374L1375,374" stroke="#e0dcd5" stroke-width="11" fill="none"/><path d="M1375,0L1375,374" stroke="#e0dcd5" stroke-width="11" fill="none"/><path d="M1375,374L1507.0000000000002,374" stroke="#e0dcd5" stroke-width="11" fill="none"/><path d="M1507.0000000000002,374L1639,374" stroke="#e8a95b" stroke-width="2.64" fill="none"/><path d="M1639,374L1705,374" stroke="#e0dcd5" stroke-width="11" fill="none"/><path d="M99,0L264,0" stroke="#6fcee0" stroke-width="7.700000000000001" fill="none"/><path d="M467.5,0L649,0" stroke="#6fcee0" stroke-width="7.700000000000001" fill="none"/><path d="M764.5,0L990,0" stroke="#6fcee0" stroke-width="7.700000000000001" fill="none"/><path d="M1094.5,0L1320,0" stroke="#6fcee0" stroke-width="7.700000000000001" fill="none"/><path d="M1424.5,0L1650,0" stroke="#6fcee0" stroke-width="7.700000000000001" fill="none"/><rect x="511.50000000000006" y="27.5" width="187" height="71.5" rx="3" fill="#87a7c2" stroke="#1a2630" stroke-width="2"/><text x="605" y="67.65" font-size="11" fill="#24333c" text-anchor="middle">SOFA</text><rect x="566.5" y="187" width="93.5" height="55" rx="3" fill="#d5dadb" stroke="#1a2630" stroke-width="2"/><text x="613.25" y="218.9" font-size="11" fill="#24333c" text-anchor="middle">TABLE</text><rect x="22" y="396" width="176" height="60.50000000000001" rx="3" fill="#d5dadb" stroke="#1a2630" stroke-width="2"/><text x="110" y="430.65" font-size="11" fill="#24333c" text-anchor="middle">DESK</text><rect x="82.5" y="478.49999999999994" width="55" height="55" rx="3" fill="#87a7c2" stroke="#1a2630" stroke-width="2"/><text x="110" y="510.4" font-size="11" fill="#24333c" text-anchor="middle">CHAIR</text><path d="M89.10000000000001,528L130.9,528" stroke="#24333c" stroke-width="4.95" fill="none"/><rect x="1870" y="27.5" width="44" height="275" rx="3" fill="#c5a269" stroke="#1a2630" stroke-width="2"/><path d="M1892,35.2L1892,294.8" stroke="#71502a" stroke-width="1.9799999999999998" fill="none"/><text x="1892" y="169.4" font-size="11" fill="#293846" text-anchor="middle">STOR</text><rect x="1947" y="22" width="99" height="99" rx="3" fill="#d5dadb" stroke="#1a2630" stroke-width="2"/><text x="1996.4999999999998" y="75.9" font-size="11" fill="#24333c" text-anchor="middle">SH</text><rect x="2062.5" y="22" width="170.5" height="88" rx="3" fill="#d5dadb" stroke="#1a2630" stroke-width="2"/><text x="2147.75" y="70.40000000000002" font-size="11" fill="#24333c" text-anchor="middle">TUB</text><rect x="1947" y="165" width="60.50000000000001" height="77" rx="3" fill="#d5dadb" stroke="#1a2630" stroke-width="2"/><text x="1977.2499999999998" y="207.9" font-size="11" fill="#24333c" text-anchor="middle">BASIN</text><g transform="translate(2208.25 247.5) rotate(180)"><rect x="-35.75" y="-27.5" width="17.875" height="55" rx="3" fill="#e6ebe9" stroke="#35454d" stroke-width="2"/><ellipse cx="7.15" cy="0" rx="24.310000000000002" ry="22" fill="#f8faf8" stroke="#35454d" stroke-width="2"/><path d="M25.025 0h33l-7 -5m7 5l-7 5" fill="none" stroke="#873c23" stroke-width="2"/></g><rect x="742.5" y="27.5" width="121.00000000000001" height="154" rx="3" fill="#87a7c2" stroke="#1a2630" stroke-width="2"/><text x="803" y="108.9" font-size="11" fill="#24333c" text-anchor="middle">BED</text><rect x="731.5" y="225.49999999999997" width="60.50000000000001" height="132" rx="3" fill="#c5a269" stroke="#1a2630" stroke-width="2"/><path d="M761.7500000000001,233.19999999999996L761.7500000000001,349.8" stroke="#71502a" stroke-width="1.9799999999999998" fill="none"/><text x="761.7500000000001" y="295.9" font-size="11" fill="#293846" text-anchor="middle">STOR</text><rect x="1072.5" y="27.5" width="121.00000000000001" height="154" rx="3" fill="#87a7c2" stroke="#1a2630" stroke-width="2"/><text x="1133" y="108.9" font-size="11" fill="#24333c" text-anchor="middle">BED</text><rect x="1061.5" y="225.49999999999997" width="60.50000000000001" height="132" rx="3" fill="#c5a269" stroke="#1a2630" stroke-width="2"/><path d="M1091.75,233.19999999999996L1091.75,349.8" stroke="#71502a" stroke-width="1.9799999999999998" fill="none"/><text x="1091.75" y="295.9" font-size="11" fill="#293846" text-anchor="middle">STOR</text><rect x="1402.5" y="27.5" width="132" height="154" rx="3" fill="#87a7c2" stroke="#1a2630" stroke-width="2"/><text x="1468.5" y="108.9" font-size="11" fill="#24333c" text-anchor="middle">BED</text><rect x="1391.5" y="225.49999999999997" width="60.50000000000001" height="132" rx="3" fill="#c5a269" stroke="#1a2630" stroke-width="2"/><path d="M1421.75,233.19999999999996L1421.75,349.8" stroke="#71502a" stroke-width="1.9799999999999998" fill="none"/><text x="1421.75" y="295.9" font-size="11" fill="#293846" text-anchor="middle">STOR</text><rect x="154" y="209" width="220" height="88" rx="3" fill="#d5dadb" stroke="#1a2630" stroke-width="2"/><text x="264" y="257.4" font-size="11" fill="#24333c" text-anchor="middle">DINING TABLE</text><rect x="154" y="126.49999999999999" width="220" height="49.5" rx="3" fill="#d5dadb" stroke="#1a2630" stroke-width="2"/><text x="264" y="155.65" font-size="11" fill="#24333c" text-anchor="middle">DINING BENCH</text><rect x="154" y="324.5" width="220" height="49.5" rx="3" fill="#d5dadb" stroke="#1a2630" stroke-width="2"/><text x="264" y="353.65000000000003" font-size="11" fill="#24333c" text-anchor="middle">DINING BENCH</text><rect x="5.5" y="22" width="40.7" height="99" rx="3" fill="#203645" stroke="#1a2630" stroke-width="2"/><g transform="translate(25.849999999999998 71.5) rotate(-90)"><rect x="-35" y="-13" width="70" height="26" rx="3" fill="none" stroke="#70dfdb" stroke-width="2"/><text x="0" y="4" font-size="11" fill="#b9f5ee" text-anchor="middle">REPLICATOR</text></g><text x="1815" y="324.5" font-size="12" fill="#e7edf3" text-anchor="middle">PRIVATE CLOSET</text><text x="264" y="71.5" font-size="13" fill="#e7edf3" text-anchor="middle">FAMILY DINING</text><text x="561" y="324.5" font-size="13" fill="#e7edf3" text-anchor="middle">LIVING</text><text x="110" y="357.5" font-size="13" fill="#e7edf3" text-anchor="middle">WORK</text><text x="913.0000000000001" y="247.5" font-size="11" fill="#e7edf3" text-anchor="middle">BEDROOM 1</text><text x="1243" y="247.5" font-size="11" fill="#e7edf3" text-anchor="middle">BEDROOM 2</text><text x="1573" y="247.5" font-size="11" fill="#e7edf3" text-anchor="middle">MASTER BEDROOM</text><text x="2090" y="363" font-size="13" fill="#24333c" text-anchor="middle">HEAD</text><text x="1320" y="522.5" font-size="12" fill="#e7edf3" text-anchor="middle">PRIVATE PASSAGE</text></g><text x="1200" y="3375" text-anchor="middle" fill="#b6c6d3" font-size="18">Tan = storage · Cyan recess = replicator · Orange = sliding door · Chair back shown opposite desk</text></g></svg>