<svg xmlns="http://www.w3.org/2000/svg" width="770" height="825"><rect width="100%" height="100%" fill="#16212b"/><g font-family="Arial"><text x="385" y="30" fill="#e7edf3" text-anchor="middle" font-size="19">Q03-L2 · Officer suite — closet</text><g transform="translate(55 65)"><path d="M0,0L440,0L440,220L660,220L660,660L0,660Z" fill="#646c7a"/><path d="M0,0L264,0L264,308L0,308Z" fill="#a6aba6"/><path d="M0,308L264,308L264,505.99999999999994L0,505.99999999999994Z" fill="#746652"/><rect x="440" y="220" width="220" height="55" fill="#e0dcd5"/><path d="M0,0L440,0" stroke="#e0dcd5" stroke-width="11" fill="none"/><path d="M440,0L440,220" stroke="#e0dcd5" stroke-width="11" fill="none"/><path d="M440,220L660,220" stroke="#e0dcd5" stroke-width="11" fill="none"/><path d="M660,220L660,660" stroke="#e0dcd5" stroke-width="11" fill="none"/><path d="M660,660L395.99999999999994,660" stroke="#e0dcd5" stroke-width="11" fill="none"/><path d="M395.99999999999994,660L264.00000000000006,660" stroke="#e8a95b" stroke-width="2.64" fill="none"/><path d="M264.00000000000006,660L0,660" stroke="#e0dcd5" stroke-width="11" fill="none"/><path d="M0,660L0,0" stroke="#e0dcd5" stroke-width="11" fill="none"/><path d="M264,0L264,87.99999999999999" stroke="#e0dcd5" stroke-width="11" fill="none"/><path d="M264,87.99999999999999L264,220" stroke="#e8a95b" stroke-width="2.64" fill="none"/><path d="M264,220L264,308" stroke="#e0dcd5" stroke-width="11" fill="none"/><path d="M0,308L264,308" stroke="#e0dcd5" stroke-width="11" fill="none"/><path d="M264,308L264,341" stroke="#e0dcd5" stroke-width="11" fill="none"/><path d="M264,341L264,473" stroke="#e8a95b" stroke-width="2.64" fill="none"/><path d="M264,473L264,505.99999999999994" stroke="#e0dcd5" stroke-width="11" fill="none"/><path d="M0,505.99999999999994L264,505.99999999999994" stroke="#e0dcd5" stroke-width="11" fill="none"/><path d="M286,0L396,0" stroke="#6fcee0" stroke-width="7.700000000000001" fill="none"/><rect x="533.5" y="308" width="93.5" height="154" rx="3" fill="#87a7c2" stroke="#1a2630" stroke-width="2"/><text x="580.2499999999999" y="389.4" font-size="11" fill="#24333c" text-anchor="middle">BED</text><rect x="16.5" y="566.5" width="148.5" height="55" rx="3" fill="#d5dadb" stroke="#1a2630" stroke-width="2"/><text x="90.75000000000001" y="598.4000000000001" font-size="11" fill="#24333c" text-anchor="middle">DESK</text><rect x="187" y="566.5" width="49.5" height="49.5" rx="3" fill="#87a7c2" stroke="#1a2630" stroke-width="2"/><text x="211.75" y="595.65" font-size="11" fill="#24333c" text-anchor="middle">CHAIR</text><rect x="434.5" y="555.5" width="187" height="71.5" rx="3" fill="#87a7c2" stroke="#1a2630" stroke-width="2"/><text x="528" y="595.65" font-size="11" fill="#24333c" text-anchor="middle">SOFA</text><rect x="456.50000000000006" y="484.00000000000006" width="121.00000000000001" height="55" rx="3" fill="#d5dadb" stroke="#1a2630" stroke-width="2"/><text x="517" y="515.9000000000001" font-size="11" fill="#24333c" text-anchor="middle">TABLE</text><rect x="16.5" y="16.5" width="93.5" height="82.5" rx="3" fill="#d5dadb" stroke="#1a2630" stroke-width="2"/><text x="63.24999999999999" y="62.150000000000006" font-size="11" fill="#24333c" text-anchor="middle">SH</text><g transform="translate(211.74999999999997 52.25) rotate(90)"><rect x="-35.75" y="-30.250000000000004" width="17.875" height="60.50000000000001" rx="3" fill="#e6ebe9" stroke="#35454d" stroke-width="2"/><ellipse cx="7.15" cy="0" rx="24.310000000000002" ry="24.200000000000003" fill="#f8faf8" stroke="#35454d" stroke-width="2"/><path d="M25.025 0h33l-7 -5m7 5l-7 5" fill="none" stroke="#873c23" stroke-width="2"/></g><rect x="16.5" y="132" width="66" height="44" rx="3" fill="#d5dadb" stroke="#1a2630" stroke-width="2"/><text x="49.49999999999999" y="158.4" font-size="11" fill="#24333c" text-anchor="middle">BASIN</text><rect x="22" y="225.49999999999997" width="170.5" height="77" rx="3" fill="#d5dadb" stroke="#1a2630" stroke-width="2"/><text x="107.25000000000001" y="268.4" font-size="11" fill="#24333c" text-anchor="middle">TUB</text><rect x="11" y="335.5" width="55" height="143" rx="3" fill="#c5a269" stroke="#1a2630" stroke-width="2"/><path d="M38.5,343.2L38.5,470.79999999999995" stroke="#71502a" stroke-width="1.9799999999999998" fill="none"/><text x="38.5" y="411.4" font-size="11" fill="#293846" text-anchor="middle">STOR</text><rect x="456.50000000000006" y="225.49999999999997" width="99" height="40.7" rx="3" fill="#203645" stroke="#1a2630" stroke-width="2"/><g transform="translate(506.00000000000006 245.85) rotate(0)"><rect x="-35" y="-13" width="70" height="26" rx="3" fill="none" stroke="#70dfdb" stroke-width="2"/><text x="0" y="4" font-size="11" fill="#b9f5ee" text-anchor="middle">REPLICATOR</text></g><text x="154" y="418" font-size="11" fill="#e7edf3" text-anchor="middle">CLOSET</text></g><text x="385" y="801" fill="#b6c6d3" text-anchor="middle" font-size="13">9 × 9 m envelope · Orange: sliding openings · WC arrow: bowl faces this way</text></g></svg>