<svg xmlns="http://www.w3.org/2000/svg" width="1430" height="605"><rect width="100%" height="100%" fill="#16212b"/><g font-family="Arial"><text x="715" y="30" fill="#e7edf3" text-anchor="middle" font-size="19">Q04-P · Paired junior-officer cabins</text><g transform="translate(55 65)"><path d="M0,0L1320,0L1320,440L0,440Z" fill="#646c7a"/><path d="M550,0L770,0L770,440L550,440Z" fill="#a6aba6"/><rect x="495" y="0" width="55" height="154" fill="#e0dcd5"/><rect x="770" y="0" width="55" height="154" fill="#e0dcd5"/><path d="M0,0L1320,0" stroke="#e0dcd5" stroke-width="11" fill="none"/><path d="M1320,0L1320,440" stroke="#e0dcd5" stroke-width="11" fill="none"/><path d="M1320,440L1166,440" stroke="#e0dcd5" stroke-width="11" fill="none"/><path d="M1166,440L1034,440" stroke="#e8a95b" stroke-width="2.64" fill="none"/><path d="M1034,440L285.99999999999994,440" stroke="#e0dcd5" stroke-width="11" fill="none"/><path d="M285.99999999999994,440L153.99999999999983,440" stroke="#e8a95b" stroke-width="2.64" fill="none"/><path d="M153.99999999999983,440L0,440" stroke="#e0dcd5" stroke-width="11" fill="none"/><path d="M0,440L0,0" stroke="#e0dcd5" stroke-width="11" fill="none"/><path d="M550,0L550,176" stroke="#e0dcd5" stroke-width="11" fill="none"/><path d="M550,176L550,308.00000000000006" stroke="#e8a95b" stroke-width="2.64" fill="none"/><path d="M550,308.00000000000006L550,440" stroke="#e0dcd5" stroke-width="11" fill="none"/><path d="M770,0L770,176" stroke="#e0dcd5" stroke-width="11" fill="none"/><path d="M770,176L770,308.00000000000006" stroke="#e8a95b" stroke-width="2.64" fill="none"/><path d="M770,308.00000000000006L770,440" stroke="#e0dcd5" stroke-width="11" fill="none"/><path d="M143,0L308,0" stroke="#6fcee0" stroke-width="7.700000000000001" fill="none"/><path d="M1011.9999999999999,0L1177,0" stroke="#6fcee0" stroke-width="7.700000000000001" fill="none"/><rect x="27.5" y="27.5" width="93.5" height="154" rx="3" fill="#87a7c2" stroke="#1a2630" stroke-width="2"/><text x="74.25" y="108.9" font-size="11" fill="#24333c" text-anchor="middle">BED</text><rect x="11" y="247.5" width="66" height="159.5" rx="3" fill="#c5a269" stroke="#1a2630" stroke-width="2"/><path d="M44,255.2L44,399.3" stroke="#71502a" stroke-width="1.9799999999999998" fill="none"/><text x="44" y="331.65000000000003" font-size="11" fill="#293846" text-anchor="middle">STOR</text><rect x="242.00000000000003" y="33" width="143" height="55" rx="3" fill="#d5dadb" stroke="#1a2630" stroke-width="2"/><text x="313.5" y="64.9" font-size="11" fill="#24333c" text-anchor="middle">DESK</text><rect x="286" y="104.5" width="55" height="55" rx="3" fill="#87a7c2" stroke="#1a2630" stroke-width="2"/><text x="313.5" y="136.4" font-size="11" fill="#24333c" text-anchor="middle">CHAIR</text><rect x="368.5" y="341" width="66" height="66" rx="3" fill="#87a7c2" stroke="#1a2630" stroke-width="2"/><text x="401.5" y="378.4" font-size="11" fill="#24333c" text-anchor="middle">SEAT</text><rect x="1199" y="27.5" width="93.5" height="154" rx="3" fill="#87a7c2" stroke="#1a2630" stroke-width="2"/><text x="1245.7500000000002" y="108.9" font-size="11" fill="#24333c" text-anchor="middle">BED</text><rect x="1243" y="247.5" width="66" height="159.5" rx="3" fill="#c5a269" stroke="#1a2630" stroke-width="2"/><path d="M1276.0000000000002,255.2L1276.0000000000002,399.3" stroke="#71502a" stroke-width="1.9799999999999998" fill="none"/><text x="1276.0000000000002" y="331.65000000000003" font-size="11" fill="#293846" text-anchor="middle">STOR</text><rect x="935" y="33" width="143" height="55" rx="3" fill="#d5dadb" stroke="#1a2630" stroke-width="2"/><text x="1006.5" y="64.9" font-size="11" fill="#24333c" text-anchor="middle">DESK</text><rect x="979" y="104.5" width="55" height="55" rx="3" fill="#87a7c2" stroke="#1a2630" stroke-width="2"/><text x="1006.5" y="136.4" font-size="11" fill="#24333c" text-anchor="middle">CHAIR</text><rect x="869" y="341" width="66" height="66" rx="3" fill="#87a7c2" stroke="#1a2630" stroke-width="2"/><text x="902.0000000000001" y="378.4" font-size="11" fill="#24333c" text-anchor="middle">SEAT</text><rect x="561" y="16.5" width="88" height="88" rx="3" fill="#d5dadb" stroke="#1a2630" stroke-width="2"/><text x="605" y="64.9" font-size="11" fill="#24333c" text-anchor="middle">SH</text><g transform="translate(695.75 52.25) rotate(90)"><rect x="-35.75" y="-30.250000000000004" width="17.875" height="60.50000000000001" rx="3" fill="#e6ebe9" stroke="#35454d" stroke-width="2"/><ellipse cx="7.15" cy="0" rx="24.310000000000002" ry="24.200000000000003" fill="#f8faf8" stroke="#35454d" stroke-width="2"/><path d="M25.025 0h33l-7 -5m7 5l-7 5" fill="none" stroke="#873c23" stroke-width="2"/></g><rect x="599.5" y="374" width="121.00000000000001" height="44" rx="3" fill="#d5dadb" stroke="#1a2630" stroke-width="2"/><text x="660" y="400.40000000000003" font-size="11" fill="#24333c" text-anchor="middle">BASIN</text><rect x="503.8" y="33" width="40.7" height="99" rx="3" fill="#203645" stroke="#1a2630" stroke-width="2"/><g transform="translate(524.15 82.5) rotate(-90)"><rect x="-35" y="-13" width="70" height="26" rx="3" fill="none" stroke="#70dfdb" stroke-width="2"/><text x="0" y="4" font-size="11" fill="#b9f5ee" text-anchor="middle">REPLICATOR</text></g><rect x="775.5" y="33" width="40.7" height="99" rx="3" fill="#203645" stroke="#1a2630" stroke-width="2"/><g transform="translate(795.8499999999999 82.5) rotate(-90)"><rect x="-35" y="-13" width="70" height="26" rx="3" fill="none" stroke="#70dfdb" stroke-width="2"/><text x="0" y="4" font-size="11" fill="#b9f5ee" text-anchor="middle">REPLICATOR</text></g><text x="660" y="242.00000000000003" font-size="12" fill="#26343e" text-anchor="middle">SHARED</text><text x="660" y="264" font-size="12" fill="#26343e" text-anchor="middle">BATH</text></g><text x="715" y="581" fill="#b6c6d3" text-anchor="middle" font-size="13">18 × 6 m envelope · Orange: sliding openings · WC arrow: bowl faces this way</text></g></svg>